<svg xmlns="http://www.w3.org/2000/svg" xmlns:xlink="http://www.w3.org/1999/xlink" width="71" height="47.746" viewBox="0 0 71 47.746"><defs><style>.a{fill:#fff;}.b{clip-path:url(#a);}.c{clip-path:url(#b);}.d{clip-path:url(#c);}.e{clip-path:url(#d);}</style><clipPath id="a"><path class="a" d="M0,0H26.709V31.553H0Z" transform="translate(0.041 0.255)"/></clipPath><clipPath id="b"><path class="a" d="M0,0H26.71V31.553H0Z" transform="translate(0.187 0.255)"/></clipPath><clipPath id="c"><path class="a" d="M0,0H9.745V10.792H0Z" transform="translate(0 0.208)"/></clipPath><clipPath id="d"><path class="a" d="M0,47H71V0H0Z" transform="translate(0 1)"/></clipPath></defs><g transform="translate(0 -0.255)"><g class="b"><path class="a" d="M24.213,25.057c-.31.259-.617.522-.937.762a11.928,11.928,0,0,1-8.542,2.264,11.555,11.555,0,0,1-8.394-4.4,12.551,12.551,0,0,1-2.41-10.112,11.058,11.058,0,0,1,7.342-9.261A12.037,12.037,0,0,1,23.622,6.07c.172.135.334.282.495.431,0,0,2.152-2.179,2.535-2.539A16.405,16.405,0,0,0,11.409.619,15.147,15.147,0,0,0,0,15.911c.1,7.613,4.534,13.3,11.8,15.149,5.327,1.357,11.405-.178,14.9-3.468-.282-.263-2.5-2.534-2.5-2.534" transform="translate(0.041 0.255)"/></g><g transform="translate(44)"><g class="c"><path class="a" d="M2.5,25.057c.31.259.617.522.937.762a11.928,11.928,0,0,0,8.542,2.264,11.554,11.554,0,0,0,8.393-4.4,12.551,12.551,0,0,0,2.41-10.112,11.059,11.059,0,0,0-7.342-9.261A12.037,12.037,0,0,0,3.088,6.07c-.172.135-.334.282-.495.431,0,0-2.152-2.179-2.535-2.539A16.405,16.405,0,0,1,15.3.619,15.147,15.147,0,0,1,26.708,15.911c-.1,7.613-4.534,13.3-11.8,15.149C9.578,32.416,3.5,30.882,0,27.592c.283-.263,2.5-2.534,2.5-2.534" transform="translate(0.187 0.255)"/></g></g><path class="a" d="M18,2.552,15.452,0,9.014,6.447,9,6.436l0,0,0,0-.012.012L2.548,0,0,2.552,6.437,9,0,15.448,2.548,18l6.437-6.448L9,11.564l0,0,0,0,.012-.012L15.452,18,18,15.448,11.563,9Z" transform="translate(27 7)"/><g transform="translate(0 37)"><g class="d"><path class="a" d="M0,5.4A5.1,5.1,0,0,1,5.083,0,4.426,4.426,0,0,1,9.745,3.756H8.266a3.017,3.017,0,0,0-3.183-2.3A3.668,3.668,0,0,0,1.451,5.4,3.617,3.617,0,0,0,5.083,9.334,3.067,3.067,0,0,0,8.266,7.148H9.745a4.531,4.531,0,0,1-4.661,3.644C2.056,10.806,0,8.507,0,5.4" transform="translate(0 0.208)"/></g></g><path class="a" d="M1.556,4.708h4.85V6.116H1.556V9.577H7V11H0V0H7V1.393H1.556Z" transform="translate(13 37)"/><path class="a" d="M9,11H7.45L1.579,2.508V11H0V0H1.55L7.436,8.477V0H9Z" transform="translate(22 37)"/><path class="a" d="M5.271,1.408V11H3.729V1.408H0V0H9V1.408Z" transform="translate(34 37)"/><path class="a" d="M1.7,11H0V0H4.306A3.42,3.42,0,0,1,7.827,3.3,3.158,3.158,0,0,1,5.218,6.35L8,11,6.083,11,3.568,6.453H1.7V11Zm0-9.608V5.178H4.4A1.862,1.862,0,0,0,6.256,3.271,1.846,1.846,0,0,0,4.4,1.393Z" transform="translate(46 37)"/><g class="e"><path class="a" d="M0,11H2V0H0Z" transform="translate(56 37)"/><path class="a" d="M0,5.5A5.212,5.212,0,0,1,5.217,0,4.534,4.534,0,0,1,10,3.829H8.483A3.092,3.092,0,0,0,5.217,1.486,3.749,3.749,0,0,0,1.489,5.5,3.7,3.7,0,0,0,5.217,9.514,3.144,3.144,0,0,0,8.483,7.286H10A4.642,4.642,0,0,1,5.217,11C2.11,11.014,0,8.671,0,5.5" transform="translate(61 37)"/></g></g></svg>